<svg width="400" height="300" viewBox="0 0 400 300" xmlns="http://www.w3.org/2000/svg">
  <rect width="400" height="300" fill="#0a0e14"/>
  <rect x="20" y="20" width="360" height="40" rx="4" fill="#162231"/>
  <circle cx="40" cy="40" r="8" fill="#8ab4ff"/>
  <rect x="60" y="35" width="50" height="10" fill="#2a3a52" rx="2"/>
  <rect x="120" y="35" width="60" height="10" fill="#2a3a52" rx="2"/>
  <rect x="280" y="30" width="80" height="20" rx="4" fill="#8ab4ff"/>
  <text x="295" y="43" font-family="Arial, sans-serif" font-size="10" fill="#04111f">+ New Lead</text>
  <rect x="20" y="80" width="360" height="200" rx="4" fill="#162231"/>
  <text x="40" y="110" font-family="Arial, sans-serif" font-size="12" fill="#8ab4ff">Hot Leads</text>
  <rect x="40" y="125" width="100" height="30" rx="4" fill="#1e2d40"/>
  <rect x="40" y="125" width="70" height="30" rx="4" fill="#8ab4ff" opacity="0.3"/>
  <text x="50" y="143" font-family="Arial, sans-serif" font-size="10" fill="#f3f7ff">123 Main St</text>
  <text x="50" y="155" font-family="Arial, sans-serif" font-size="8" fill="#5a6a7a">$285,000</text>
  <text x="120" y="143" font-family="Arial, sans-serif" font-size="9" fill="#8ab4ff">Score: 92</text>
  <rect x="150" y="125" width="100" height="30" rx="4" fill="#1e2d40"/>
  <rect x="150" y="125" width="60" height="30" rx="4" fill="#8ab4ff" opacity="0.2"/>
  <text x="160" y="143" font-family="Arial, sans-serif" font-size="10" fill="#f3f7ff">456 Oak Ave</text>
  <text x="160" y="155" font-family="Arial, sans-serif" font-size="8" fill="#5a6a7a">$320,000</text>
  <text x="230" y="143" font-family="Arial, sans-serif" font-size="9" fill="#8ab4ff">Score: 87</text>
  <text x="40" y="180" font-family="Arial, sans-serif" font-size="12" fill="#8ab4ff">Recent Deals</text>
  <rect x="40" y="195" width="340" height="60" rx="4" fill="#1e2d40"/>
  <circle cx="60" cy="225" r="15" fill="#2a3a52"/>
  <text x="55" y="230" font-family="Arial, sans-serif" font-size="14" fill="#f3f7ff">✓</text>
  <text x="85" y="218" font-family="Arial, sans-serif" font-size="11" fill="#f3f7ff">Sold: $310,000</text>
  <text x="85" y="233" font-family="Arial, sans-serif" font-size="9" fill="#5a6a7a">Listed: $295,000</text>
  <text x="320" y="218" font-family="Arial, sans-serif" font-size="10" fill="#8ab4ff">+5.1%</text>
  <text x="320" y="233" font-family="Arial, sans-serif" font-size="10" fill="#5a6a7a">8 days</text>
</svg>